<svg xmlns="http://www.w3.org/2000/svg" xmlns:xlink="http://www.w3.org/1999/xlink" width="26" height="26" viewBox="0 0 26 26">
  <defs>
    <path id="path-2" fill-rule="evenodd" d="M10.15789474 6.5c0-.55228475.44771525-1 1-1H18c.55228475 0 1 .44771525 1 1v8.8c0 .55228475-.44771525 1-1 1h-6.84210526c-.55228475 0-1-.44771525-1-1V6.5z"/>
    <mask id="mask-3" x="0" y="0" maskContentUnits="userSpaceOnUse" maskUnits="userSpaceOnUse">
      <rect width="26" height="26" x="0" y="0" fill="black"/>
      <use fill="white" xlink:href="#path-2"/>
    </mask>
    <path id="path-5" fill-rule="evenodd" d="M8 9.7h6.84210526c.55191503 0 1 .44808498 1 1v8.8c0 .55191502-.44808497 1-1 1H8c-.55191502 0-1-.44808498-1-1v-8.8c0-.55191502.44808498-1 1-1z"/>
    <mask id="mask-6" x="0" y="0" maskContentUnits="userSpaceOnUse" maskUnits="userSpaceOnUse">
      <rect width="26" height="26" x="0" y="0" fill="black"/>
      <use fill="white" xlink:href="#path-5"/>
    </mask>
  </defs>
  <g>
    <ellipse cx="13" cy="13" fill="rgb(242,242,242)" rx="13" ry="13"/>
    <g>
      <use fill-opacity="0" stroke="rgb(157,104,191)" stroke-linecap="butt" stroke-linejoin="miter" stroke-width="3" mask="url(#mask-3)" xlink:href="#path-2"/>
      <path fill="rgb(242,242,242)" fill-rule="evenodd" d="M9.2631579 8.5h6.84210526c.55191502 0 1 .44808498 1 1v8.8c0 .55191502-.44808498 1-1 1H9.26315789c-.55191502 0-1-.44808498-1-1V9.5c0-.55191502.44808498-1 1-1z"/>
      <use fill-opacity="0" stroke="rgb(157,104,191)" stroke-linecap="butt" stroke-linejoin="miter" stroke-width="3" mask="url(#mask-6)" xlink:href="#path-5"/>
    </g>
  </g>
</svg>
